<svg xmlns="http://www.w3.org/2000/svg" fill="none" viewBox="0 0 1600 1600" height="1600" width="1600">
<path fill="#D9D9D9" d="M1344 1091.5C1344 1147 1105.14 1192 810.5 1192C515.856 1192 277 1147 277 1091.5C277 1036 515.856 991 810.5 991C1105.14 991 1344 1036 1344 1091.5Z"></path>
<path fill="black" d="M763.77 316.29L764.233 316.328L764.697 316.382C769.58 316.988 777.392 319.26 786.511 322.369C796.097 325.638 807.616 330.005 819.7 334.883C840.442 343.255 863.012 353.196 880.544 361.778C896.664 358.607 913.447 356.932 930.685 356.932C948.996 356.932 966.795 358.822 983.83 362.388C1000.95 353.996 1022.55 344.42 1042.44 336.314C1054.42 331.436 1065.83 327.067 1075.33 323.798C1084.36 320.69 1092.11 318.414 1096.96 317.807L1097.42 317.753L1097.87 317.715C1099.39 317.625 1100.76 317.907 1102.01 318.43C1103.95 318.525 1105.82 320.171 1107.59 323.077C1107.73 323.259 1107.87 323.439 1108 323.619C1110.31 326.861 1112.31 331.346 1114.07 336.454C1117.63 346.754 1120.72 360.972 1123.35 376.557C1128.45 406.799 1131.98 443.082 1133.73 468.211C1136.05 472.478 1138.18 476.831 1140.14 481.261C1215.84 595.515 1253.59 942.018 1082.32 1058.9C970.367 1135.31 695.411 1150.21 568.206 1072.57C532.82 1088.27 455.734 1103.88 333.478 1082.72C156.56 1052.1 177.163 882.642 270.418 821.979C383.401 748.482 470.108 783.48 474.487 821.979C478.866 860.477 251.151 905.977 259.908 992.599C266.499 1057.78 434.777 1055.3 532.976 1044.58C522.827 1033.83 514.866 1021.92 509.512 1008.8C461.184 890.425 564.979 844.826 614.954 792.213C691.313 711.823 682.732 645.026 707.822 530.732C710.563 506.327 718.602 483.256 730.938 462.377C732.698 437.714 735.444 404.478 739.524 376.317C741.82 360.475 744.571 345.993 747.882 335.494C749.523 330.29 751.409 325.708 753.655 322.391C755.696 319.376 759.029 316.016 763.77 316.29Z"></path>
<path fill="white" d="M767.819 351.229C784.478 361.047 825.013 386.422 816.973 391.35C793.142 405.956 759.675 433.701 754.122 440.697C748.569 447.693 757.453 355.647 767.819 351.229ZM1094.98 351.229C1105.34 355.648 1114.23 447.693 1108.67 440.697C1103.12 433.701 1069.65 405.956 1045.82 391.35C1037.78 386.422 1078.32 361.047 1094.98 351.229Z" opacity="0.2"></path>
<path fill="white" d="M879.259 613.24C892.028 612.24 901.868 611.716 906.6 611.966C907.151 611.995 907.575 612.466 907.546 613.017C907.517 613.569 907.046 613.992 906.494 613.963C901.918 613.722 892.217 614.23 879.415 615.233C866.64 616.234 850.847 617.72 834.133 619.416C800.706 622.807 763.616 627.037 739.665 629.897C739.117 629.962 738.619 629.57 738.554 629.022C738.489 628.474 738.881 627.976 739.429 627.911C763.388 625.049 800.489 620.818 833.931 617.425C850.651 615.729 866.462 614.242 879.259 613.24ZM1057.67 607.046C1062.26 606.812 1071.8 607.302 1084.19 608.24C1096.6 609.179 1111.94 610.574 1128.16 612.165C1160.6 615.346 1196.59 619.312 1219.83 621.995C1220.38 622.058 1220.78 622.554 1220.71 623.102C1220.65 623.651 1220.15 624.044 1219.6 623.981C1196.37 621.299 1160.39 617.334 1127.97 614.155C1111.75 612.565 1096.43 611.172 1084.04 610.234C1071.62 609.294 1062.21 608.818 1057.77 609.044C1057.22 609.072 1056.75 608.647 1056.72 608.095C1056.69 607.544 1057.12 607.074 1057.67 607.046ZM739.497 586.962C744.225 586.728 754.06 587.218 766.83 588.156C779.626 589.095 795.437 590.49 812.157 592.081C845.598 595.262 882.7 599.227 906.658 601.91C907.207 601.971 907.603 602.467 907.541 603.015C907.48 603.564 906.985 603.96 906.436 603.898C882.485 601.216 845.394 597.251 811.967 594.071C795.253 592.481 779.459 591.089 766.684 590.151C753.883 589.211 744.178 588.733 739.597 588.96C739.046 588.987 738.576 588.562 738.548 588.01C738.521 587.459 738.946 586.989 739.497 586.962ZM1193.25 581.24C1205.63 580.302 1215.18 579.812 1219.77 580.046C1220.32 580.074 1220.75 580.544 1220.72 581.095C1220.69 581.647 1220.22 582.072 1219.67 582.044C1215.23 581.818 1205.82 582.294 1193.4 583.234C1181.01 584.172 1165.69 585.565 1149.47 587.155C1117.05 590.334 1081.07 594.299 1057.83 596.981C1057.28 597.044 1056.79 596.651 1056.73 596.102C1056.66 595.554 1057.06 595.058 1057.6 594.995C1080.85 592.312 1116.84 588.346 1149.28 585.165C1165.5 583.574 1180.83 582.179 1193.25 581.24Z"></path>
<path fill="white" d="M859.825 532.44C863.166 511.031 886.097 523.56 902.819 526.169C926.38 529.845 934.709 531.536 931.368 552.944C928.028 574.353 906.221 579.385 890.26 576.895C864.418 572.862 856.485 553.848 859.825 532.44ZM1059.98 524.507C1076.7 521.898 1099.64 509.369 1102.98 530.777C1106.32 552.186 1098.38 571.2 1072.54 575.232C1056.58 577.723 1034.77 572.691 1031.43 551.282C1028.09 529.874 1036.42 528.183 1059.98 524.507Z"></path>
<path fill="#FED43E" d="M871.183 532.623C873.284 519.147 887.456 526.527 903.407 529.015C922.06 531.926 932.491 533.901 929.806 551.112C927.12 568.323 904.926 569.809 895.204 568.292C879.253 565.803 868.498 549.833 871.183 532.623ZM1068.27 526.301C1084.22 523.812 1098.39 516.432 1100.49 529.908C1103.18 547.119 1092.42 563.088 1076.47 565.577C1066.75 567.094 1044.56 565.608 1041.87 548.397C1039.19 531.187 1049.62 529.211 1068.27 526.301Z"></path>
<path fill="black" d="M907.702 555.775C908.578 551.828 911.642 549.151 914.545 549.795C917.448 550.439 919.092 554.161 918.216 558.108C917.34 562.054 914.277 564.73 911.374 564.086C908.471 563.442 906.826 559.721 907.702 555.775ZM1082.49 547.645C1085.46 547.877 1087.61 551.333 1087.29 555.363C1086.97 559.393 1084.31 562.471 1081.35 562.238C1078.38 562.006 1076.24 558.551 1076.55 554.521C1076.87 550.491 1079.53 547.412 1082.49 547.645Z"></path>
<path fill="#FFCFC2" d="M1006.38 568.226C1006.38 573.346 997.119 573.465 985.698 573.465C974.277 573.465 965.019 573.346 965.019 568.226C965.019 563.106 974.277 554.925 985.698 554.925C997.119 554.925 1006.38 563.106 1006.38 568.226Z"></path>
<path fill="url(#paint0_linear_221_134)" d="M1279.08 825.646C1278.75 818.489 1272.68 812.955 1265.52 813.285L1212.16 815.746C1205 816.077 1199.47 822.146 1199.8 829.303C1200.13 836.46 1206.2 841.995 1213.36 841.665L1266.72 839.203C1273.87 838.873 1279.41 832.804 1279.08 825.646Z"></path>
<path fill="white" d="M1155.65 832.87C1157.23 866.972 1182.73 893.499 1212.62 892.12C1242.52 890.741 1265.47 861.979 1263.9 827.877C1262.33 793.775 1236.82 767.248 1206.93 768.627C1177.04 770.006 1154.08 798.768 1155.65 832.87Z"></path>
<path fill="url(#paint1_linear_221_134)" d="M1258.27 805.273C1257.24 782.929 1238.29 765.652 1215.95 766.682L1030.05 775.257C1007.71 776.288 990.432 795.236 991.463 817.58L993.567 863.208C994.598 885.552 1013.55 902.83 1035.89 901.799L1221.78 893.225C1244.13 892.194 1261.4 873.245 1260.37 850.901L1258.27 805.273Z"></path>
<path fill="white" d="M992.446 838.868C994.019 872.97 1019.53 899.497 1049.42 898.118C1079.31 896.739 1102.27 867.977 1100.69 833.875C1099.12 799.773 1073.61 773.246 1043.72 774.625C1013.83 776.004 990.873 804.766 992.446 838.868Z"></path>
<path fill="url(#paint2_linear_221_134)" d="M992.446 838.868C994.019 872.97 1018.16 899.56 1046.37 898.259C1074.58 896.958 1096.17 868.258 1094.59 834.156C1093.02 800.055 1068.88 773.465 1040.67 774.766C1012.46 776.067 990.873 804.767 992.446 838.868Z"></path>
<path fill="url(#paint3_linear_221_134)" d="M1051.98 837.653C1051.65 830.495 1045.58 824.961 1038.42 825.291L985.059 827.753C977.901 828.083 972.367 834.152 972.697 841.309C973.027 848.467 979.097 854.001 986.254 853.671L1039.62 851.209C1046.77 850.879 1052.31 844.81 1051.98 837.653Z"></path>
<path fill="#585857" d="M992.216 833.931C992.05 830.345 989.009 827.572 985.423 827.738L978.589 828.053C975.003 828.218 972.23 831.26 972.396 834.846L972.992 847.778C973.158 851.364 976.199 854.137 979.785 853.971L986.618 853.656C990.204 853.491 992.977 850.449 992.812 846.863L992.216 833.931Z"></path>
<path fill="#C3C5C6" d="M1175.61 1063.1L1171.03 1027.23L1147.38 1021.13L1158.82 1066.15L1175.61 1063.1Z"></path>
<path fill="#47484C" d="M1124.57 1016.18C1117.61 1008.48 1114.97 986.861 1114.04 973.154L1139.95 971.875C1151.84 990.899 1173.36 1029.52 1164.31 1031.8C1152.99 1034.65 1139.11 1032.28 1124.57 1016.18Z"></path>
<path fill="#585D60" d="M1136.5 962.482C1138.7 953.444 1175.53 947.8 1184.82 956.908C1190.92 964.26 1190.6 989.786 1189.63 1000.68C1189.06 1007.07 1183.29 1027.47 1170.8 1030.94C1156.86 1034.82 1142.55 1024.05 1138.76 1008.29C1132.85 983.708 1135.57 966.281 1136.5 962.482Z"></path>
<path fill="#47484C" d="M1099.72 899.747L1117.62 887.587C1135.77 914.706 1173.85 974.021 1162.25 974.594C1146.24 975.383 1100.66 980.689 1083.68 961.663C1071.92 948.49 1073.11 917.87 1072.29 901.102L1099.72 899.747Z"></path>
<path fill="#63686C" d="M1115.33 889.111C1119.37 878.215 1187.45 876.473 1201.95 892.609C1210.17 905.217 1209.89 926.612 1207.94 939.697C1206.79 947.381 1195.31 968.773 1173.64 973.263C1149.44 978.278 1124.99 965.732 1118.86 946.934C1109.28 917.609 1113.63 893.692 1115.33 889.111Z"></path>
<path fill="url(#paint4_linear_221_134)" d="M1180.96 1082.94C1180.96 1104.44 1205.59 1115.76 1227.51 1115.76C1249.42 1115.76 1269.48 1113.6 1269.48 1092.1C1269.48 1070.61 1249.42 1037.92 1227.51 1037.92C1205.59 1037.92 1180.96 1061.45 1180.96 1082.94Z"></path>
<path fill="url(#paint5_linear_221_134)" d="M1171.37 1048.12C1163.41 1067.17 1175.24 1075.91 1192.74 1083.22C1210.24 1090.53 1214.54 1087.01 1222.5 1067.96C1230.46 1048.9 1217.15 1030.17 1211.41 1027.77C1200.37 1023.16 1179.33 1029.06 1171.37 1048.12Z"></path>
<path fill="url(#paint6_linear_221_134)" d="M1080.23 1097.44C1080.23 1118.52 1115.4 1120.34 1155.01 1120.34C1194.63 1120.34 1225.98 1118.52 1225.98 1097.44C1225.98 1076.37 1194.63 1044.03 1155.01 1044.03C1115.4 1044.03 1080.23 1076.37 1080.23 1097.44Z"></path>
<path fill="#FEE5A4" d="M1244.6 978.398L1214.92 1005.65L1242.83 998.35L1275.96 1023.89L1297.94 951.998L1267.37 997.088L1244.6 978.398Z"></path>
<path fill="url(#paint7_linear_221_134)" d="M1369.5 897.788L1400 846.34L1384.79 949.409L1343.24 924.459L1306.85 983.776L1332.53 873.998L1369.5 897.788Z"></path>
<path fill="url(#paint8_linear_221_134)" d="M1029.24 984.232L1000.6 958.558L1063.71 981.045L1042.78 1004.13L1075.65 1034.51L1009.61 1004.58L1029.24 984.232Z"></path>
<path fill="#747474" d="M1085.57 928.83C1085.57 933.466 1088.99 937.224 1093.2 937.224C1097.42 937.224 1100.83 933.466 1100.83 928.83C1100.83 924.194 1097.42 920.436 1093.2 920.436C1088.99 920.436 1085.57 924.194 1085.57 928.83Z"></path>
<path fill="black" d="M1086.57 928.83C1086.57 924.655 1089.63 921.436 1093.2 921.436C1096.78 921.436 1099.83 924.655 1099.83 928.83C1099.83 933.005 1096.78 936.223 1093.2 936.224V937.224C1097.29 937.223 1100.62 933.697 1100.82 929.262L1100.83 928.83C1100.83 924.194 1097.42 920.436 1093.2 920.436C1088.99 920.436 1085.57 924.194 1085.57 928.83L1085.58 929.262C1085.79 933.697 1089.12 937.224 1093.2 937.224V936.224C1089.63 936.224 1086.57 933.005 1086.57 928.83Z"></path>
<path fill="#FFA419" d="M1199.14 853.342L1130.46 856.395C1128.8 856.468 1127.52 857.869 1127.6 859.525C1127.67 861.18 1129.07 862.462 1130.73 862.389L1199.41 859.336C1201.06 859.263 1202.34 857.861 1202.27 856.206C1202.2 854.551 1200.79 853.269 1199.14 853.342ZM1199.14 826.633L1128.94 829.686C1127.28 829.758 1126 831.158 1126.07 832.813C1126.14 834.468 1127.54 835.752 1129.2 835.68L1199.4 832.627C1201.06 832.555 1202.34 831.155 1202.27 829.5C1202.2 827.845 1200.8 826.561 1199.14 826.633Z"></path>
<path fill="black" d="M973.877 782.086C1003.08 767.685 1037.98 777.707 1048.98 798.954C1059.98 820.201 1039.66 838.365 1010.46 852.767C981.255 867.168 954.223 872.354 943.227 851.107C932.23 829.86 944.674 796.488 973.877 782.086ZM1135.23 762.818C1139.71 735.697 1174.51 712.761 1211.79 718.634C1249.07 724.507 1274.71 756.964 1270.22 784.086C1265.74 811.207 1234.15 814.728 1196.87 808.856C1159.6 802.983 1130.75 789.94 1135.23 762.818Z"></path>
<path fill="white" d="M971.579 777.645C987.298 769.893 1004.56 768.705 1019.42 772.337C1034.2 775.951 1047.13 784.492 1053.47 796.742C1056.67 802.926 1057.68 809.115 1056.68 815.153C1055.69 821.123 1052.79 826.6 1048.73 831.564C1040.7 841.387 1027.55 849.91 1012.76 857.206C997.962 864.503 983.131 869.78 970.265 870.262C963.764 870.505 957.528 869.533 952.018 866.769C946.444 863.972 941.943 859.503 938.742 853.319C932.402 841.068 933.028 825.844 938.818 812.085C944.64 798.254 955.86 785.397 971.579 777.645ZM1048.98 798.953C1037.98 777.707 1003.08 767.685 973.878 782.086C944.675 796.488 932.23 829.859 943.227 851.107L943.487 851.6C954.646 872.272 981.484 867.055 1010.46 852.766L1011.82 852.088C1040.29 837.796 1059.81 819.868 1048.98 798.953ZM1158.65 724.083C1173.54 715.108 1192.75 710.572 1212.61 713.7C1232.46 716.829 1249.24 727.034 1260.48 740.126C1271.67 753.156 1277.71 769.479 1275.16 784.863C1273.88 792.623 1270.6 798.932 1265.59 803.79C1260.64 808.597 1254.26 811.739 1247.12 813.664C1232.97 817.479 1214.91 816.758 1196.06 813.788C1177.21 810.819 1159.83 805.957 1147.63 797.989C1141.47 793.97 1136.43 789.029 1133.28 782.945C1130.09 776.797 1129.01 769.8 1130.29 762.04C1132.84 746.655 1143.83 733.016 1158.65 724.083ZM1211.79 718.634C1174.51 712.761 1139.71 735.697 1135.23 762.819C1130.75 789.94 1159.6 802.982 1196.87 808.855C1234.15 814.727 1265.74 811.207 1270.22 784.085C1274.71 756.964 1249.07 724.507 1211.79 718.634Z"></path>
<path fill="white" d="M1232.88 770.408C1232.73 768.759 1231.27 767.545 1229.62 767.698C1227.97 767.851 1226.75 769.314 1226.91 770.963C1227.21 774.235 1227.11 779.589 1225.81 784.774C1224.5 790.015 1222.1 794.555 1218.24 796.97C1216.83 797.848 1216.41 799.699 1217.28 801.104C1218.16 802.509 1220.01 802.936 1221.42 802.057C1227.19 798.448 1230.15 792.124 1231.63 786.231C1233.12 780.283 1233.24 774.236 1232.88 770.408ZM1189.55 758.094C1189.45 756.44 1188.03 755.182 1186.37 755.283C1184.72 755.385 1183.46 756.807 1183.56 758.461C1183.83 762.756 1183.5 769.55 1181.68 775.793C1179.83 782.127 1176.68 787.174 1171.85 789.186C1170.32 789.823 1169.59 791.579 1170.23 793.108C1170.87 794.638 1172.62 795.362 1174.15 794.726C1181.51 791.666 1185.41 784.43 1187.44 777.471C1189.49 770.421 1189.85 762.912 1189.55 758.094Z"></path>
<path fill="white" d="M964.203 830.396C963.849 828.778 964.874 827.179 966.493 826.825C968.111 826.471 969.71 827.496 970.064 829.115C970.664 831.859 972.138 836.211 974.544 840.107C976.981 844.051 980.081 847.069 983.758 848.012C985.363 848.424 986.331 850.058 985.919 851.663C985.507 853.268 983.873 854.236 982.268 853.824C976.408 852.322 972.228 847.775 969.439 843.259C966.619 838.694 964.922 833.687 964.203 830.396ZM996.754 808.865C996.349 807.258 997.325 805.627 998.931 805.223C1000.54 804.819 1002.17 805.794 1002.57 807.4C1003.47 810.983 1005.51 816.462 1008.62 821.093C1011.78 825.803 1015.62 829.019 1019.96 829.396C1021.61 829.539 1022.83 830.993 1022.69 832.643C1022.54 834.294 1021.09 835.516 1019.44 835.373C1012.38 834.761 1007.17 829.688 1003.64 824.437C1000.06 819.108 997.783 812.955 996.754 808.865Z"></path>
<path fill="white" d="M785.605 1102.13C785.854 1104.94 784.417 1107.11 782.677 1108.44C781.137 1109.61 779.196 1110.3 777.298 1110.76C772.552 1111.92 765.754 1112.33 757.831 1112.24C749.8 1112.14 740.237 1111.53 729.768 1110.5C708.825 1108.44 684.025 1104.66 660.165 1099.82C636.335 1094.98 613.265 1089.05 595.846 1082.65C587.162 1079.45 579.66 1076.06 574.13 1072.51C571.364 1070.73 568.924 1068.81 567.063 1066.72C565.213 1064.64 563.692 1062.12 563.299 1059.18C562.932 1056.44 564.855 1053.93 567.592 1053.56C570.328 1053.19 572.845 1055.12 573.211 1057.85C573.25 1058.14 573.474 1058.88 574.533 1060.07C575.58 1061.25 577.214 1062.61 579.534 1064.1C584.175 1067.08 590.899 1070.17 599.297 1073.26C616.042 1079.42 638.559 1085.23 662.154 1090.02C685.718 1094.8 710.18 1098.52 730.75 1100.55C741.037 1101.56 750.294 1102.15 757.946 1102.24C764.341 1102.31 769.371 1102.03 772.883 1101.46C768.014 1098.22 759.506 1094.26 750.059 1090.06C740.527 1085.82 730.185 1081.38 723.177 1077.61C719.816 1075.8 716.529 1073.79 714.594 1071.67C713.708 1070.71 712.138 1068.69 712.373 1065.94C712.6 1063.31 714.27 1061.72 715.698 1060.83C728.34 1048.91 732.14 1040.26 731.983 1034.08C731.829 1028.04 727.813 1022.46 719.732 1016.83C711.72 1011.25 700.831 1006.41 689.158 1001.56C677.711 996.804 665.471 992.028 655.622 986.715C653.192 985.404 652.285 982.371 653.596 979.941C654.907 977.511 657.94 976.604 660.37 977.915C669.64 982.916 681.181 987.417 692.994 992.325C704.58 997.138 716.429 1002.35 725.447 1008.63C734.396 1014.86 741.703 1022.95 741.979 1033.82C742.236 1043.94 736.326 1054.69 724.137 1066.59C725.088 1067.21 726.336 1067.95 727.919 1068.81C734.493 1072.35 744.294 1076.55 754.124 1080.92C763.667 1085.17 773.444 1089.67 779.14 1093.62C780.594 1094.63 781.984 1095.73 783.082 1096.93C784.089 1098.04 785.399 1099.81 785.605 1102.13Z"></path>
<defs>
<linearGradient gradientUnits="userSpaceOnUse" y2="840.434" x2="1240.04" y1="814.516" x1="1238.84" id="paint0_linear_221_134">
<stop stop-color="#848385"></stop>
<stop stop-color="#7A766A" offset="1"></stop>
</linearGradient>
<linearGradient gradientUnits="userSpaceOnUse" y2="897.512" x2="1128.84" y1="770.97" x1="1123" id="paint1_linear_221_134">
<stop stop-color="#FEE460"></stop>
<stop stop-color="#F2B533" offset="0.683052"></stop>
<stop stop-color="#FFDB4F" offset="1"></stop>
</linearGradient>
<linearGradient gradientUnits="userSpaceOnUse" y2="891.322" x2="1026.44" y1="785.035" x1="1055.77" id="paint2_linear_221_134">
<stop stop-color="#FFD45D"></stop>
<stop stop-color="#FCA90F" offset="1"></stop>
</linearGradient>
<linearGradient gradientUnits="userSpaceOnUse" y2="852.44" x2="1012.93" y1="826.522" x1="1011.74" id="paint3_linear_221_134">
<stop stop-color="#848385"></stop>
<stop stop-color="#7A766A" offset="1"></stop>
</linearGradient>
<linearGradient gradientUnits="userSpaceOnUse" y2="1115.76" x2="1225.22" y1="1037.92" x1="1225.22" id="paint4_linear_221_134">
<stop stop-color="#D9D9D9"></stop>
<stop stop-color="#737373" offset="1"></stop>
</linearGradient>
<linearGradient gradientUnits="userSpaceOnUse" y2="1080.97" x2="1187.35" y1="1027.12" x1="1209.85" id="paint5_linear_221_134">
<stop stop-color="#D9D9D9"></stop>
<stop stop-color="#5E5D5D" offset="1"></stop>
</linearGradient>
<linearGradient gradientUnits="userSpaceOnUse" y2="1099.73" x2="1221.4" y1="1087.52" x1="1087.86" id="paint6_linear_221_134">
<stop stop-color="#D9D9D9"></stop>
<stop stop-color="#8E8E8E" offset="1"></stop>
</linearGradient>
<linearGradient gradientUnits="userSpaceOnUse" y2="987.281" x2="1347.14" y1="842.835" x1="1359.71" id="paint7_linear_221_134">
<stop stop-color="#FDE15E"></stop>
<stop stop-color="#FEC945" offset="1"></stop>
</linearGradient>
<linearGradient gradientUnits="userSpaceOnUse" y2="1009.53" x2="1082.9" y1="983.537" x1="993.349" id="paint8_linear_221_134">
<stop stop-color="#FEE5A4"></stop>
<stop stop-color="#F4E4BA" offset="1"></stop>
</linearGradient>
</defs>
</svg>
